<?xml version="1.0" encoding="utf-8"?>
<!-- Generator: Adobe Illustrator 27.1.1, SVG Export Plug-In . SVG Version: 6.00 Build 0)  -->
<svg version="1.1" id="Layer_1" xmlns="http://www.w3.org/2000/svg" xmlns:xlink="http://www.w3.org/1999/xlink" x="0px" y="0px"
	 viewBox="0 0 400 260" style="enable-background:new 0 0 400 260;" xml:space="preserve">
<style type="text/css">
	.st0{fill:#FF0080;}
	.st1{fill:#82CF17;}
	.st2{fill:#FFFFFF;}
	.st3{fill:#25AFF4;}
	.st4{fill:#FF9500;}
</style>
<polygon class="st0" points="124.7,4 5.5,256 243.8,256 "/>
<polygon class="st1" points="275.3,256 394.5,4 156.2,4 "/>
<g>
	<polygon class="st2" points="275.3,167.1 352.4,4 198.2,4 	"/>
</g>
<g>
	<polygon class="st3" points="275.3,122 331.1,4 219.6,4 	"/>
</g>
<g id="A-crossbar_00000092433454121160388540000016511847917957531809_">
	<circle class="st4" cx="124.7" cy="183" r="37.4"/>
	<path class="st2" d="M124.7,156.6c14.6,0,26.4,11.8,26.4,26.4s-11.8,26.4-26.4,26.4S98.2,197.6,98.2,183S110.1,156.6,124.7,156.6
		 M124.7,134.6c-26.7,0-48.4,21.7-48.4,48.4s21.7,48.4,48.4,48.4s48.4-21.7,48.4-48.4S151.4,134.6,124.7,134.6L124.7,134.6z"/>
</g>
</svg>
